# xmcd CD database file
#
# Track frame offsets:
#	150
#	39530
#	59752
#	80835
#	105785
#	141125
#
# Disc length: 2224 seconds
#
# Revision: 0
# Processed by: cddbd v1.5PL3 Copyright (c) Steve Scherf et al.
# Submitted via: CDex 1.50
#
DISCID=4d08ae06
DTITLE=Ric Halstead, Eugene Pao, Eddie Gomez - Chance Encounters
DYEAR=1900
DGENRE=Jazz
TTITLE0=Time Slips Away
TTITLE1=Chance Encounters
TTITLE2=Interactions
TTITLE3=Alone and Together
TTITLE4=Kindred Spirits
TTITLE5=Parting Friends
EXTD=
EXTT0=
EXTT1=
EXTT2=
EXTT3=
EXTT4=
EXTT5=
PLAYORDER=
